<?xml version="1.0" encoding="UTF-8" standalone="no"?>
<svg width="80px" height="80px" viewBox="0 0 80 80" version="1.1" xmlns="http://www.w3.org/2000/svg" xmlns:xlink="http://www.w3.org/1999/xlink">
    <!-- Generator: Sketch 48.2 (47327) - http://www.bohemiancoding.com/sketch -->
    <title>Group 5</title>
    <desc>Created with Sketch.</desc>
    <defs></defs>
    <g id="Menu" stroke="none" stroke-width="1" fill="none" fill-rule="evenodd" transform="translate(-1200.000000, -909.000000)">
        <g id="Group-5" transform="translate(1200.000000, 909.000000)" fill="#414241">
            <path d="M65.4536,13.7968 C58.8288,7.1944 49.704,3.092 39.6136,3.092 C29.5248,3.092 20.3992,7.1944 13.7968,13.7968 C7.1936,20.3992 3.092,29.524 3.092,39.6144 C3.092,49.7048 7.1936,58.8288 13.7968,65.4536 C20.3992,72.056 29.5248,76.136 39.6136,76.136 C49.704,76.136 58.8288,72.056 65.4536,65.4536 C72.056,58.8288 76.136,49.7048 76.136,39.6144 C76.136,29.524 72.056,20.3992 65.4536,13.7968 Z M39.6136,0 C50.5592,0 60.452,4.4304 67.6248,11.604 C74.7976,18.7768 79.228,28.6688 79.228,39.6144 C79.228,50.5592 74.7976,60.452 67.6248,67.6248 C60.452,74.7976 50.5592,79.228 39.6136,79.228 C28.6688,79.228 18.776,74.7976 11.6032,67.6248 C4.4304,60.452 0,50.5592 0,39.6144 C0,28.6688 4.4304,18.7768 11.6032,11.604 C18.776,4.4304 28.6688,0 39.6136,0 Z" id="Fill-4"></path>
            <path d="M42.8808,32.108 L42.8808,28.8616 C42.8808,27.3048 43.912,26.932 44.6584,26.932 C45.3816,26.932 49.1984,26.932 49.1984,26.932 L49.1984,20 L42.9472,20 C35.9936,20 34.436,25.1328 34.436,28.4672 L34.436,32.108 L30.4,32.108 L30.4,40.2024 L34.48,40.2024 C34.48,49.3928 34.48,60.4264 34.48,60.4264 L42.5744,60.4264 C42.5744,60.4264 42.5744,49.2392 42.5744,40.2024 L48.5624,40.2024 L48.8256,37.0216 L49.308,32.108 L42.8808,32.108" id="Fill-40"></path>
        </g>
    </g>
</svg>