<?xml version="1.0" encoding="UTF-8" standalone="no"?>
<svg width="80px" height="80px" viewBox="0 0 80 80" version="1.1" xmlns="http://www.w3.org/2000/svg" xmlns:xlink="http://www.w3.org/1999/xlink">
    <!-- Generator: Sketch 48.2 (47327) - http://www.bohemiancoding.com/sketch -->
    <title>Group 4</title>
    <desc>Created with Sketch.</desc>
    <defs></defs>
    <g id="Menu" stroke="none" stroke-width="1" fill="none" fill-rule="evenodd" transform="translate(-1090.000000, -909.000000)">
        <g id="Group-4" transform="translate(1090.000000, 909.000000)" fill="#414241">
            <path d="M66.0508969,13.9272988 C59.3852397,7.26164158 50.173324,3.14385795 39.9882903,3.14385795 C29.8032565,3.14385795 20.5921484,7.26164158 13.9264912,13.9272988 C7.24064484,20.5921484 3.12205364,29.8258684 3.12205364,40.0109022 C3.12205364,50.1741316 7.24064484,59.4078516 13.9264912,66.0727012 C20.5921484,72.7367433 29.8032565,76.8779464 39.9882903,76.8779464 C50.173324,76.8779464 59.3852397,72.7367433 66.0508969,66.0727012 C72.7367433,59.4078516 76.8537194,50.1741316 76.8537194,40.0109022 C76.8537194,29.8258684 72.7367433,20.5921484 66.0508969,13.9272988 Z M68.2644378,11.7129503 C75.5042751,18.9535952 79.9781957,28.9617718 79.9781957,40.0109022 C79.9781957,51.0374206 75.5042751,61.0464048 68.2644378,68.2862421 C61.0237929,75.5050826 51.0382282,80 39.9882903,80 C28.9383524,80 18.9527876,75.5050826 11.7121428,68.2862421 C4.47311307,61.0464048 0,51.0374206 0,40.0109022 C0,28.9617718 4.47311307,18.9535952 11.7121428,11.7129503 C18.9527876,4.49410981 28.9383524,0 39.9882903,0 C51.0382282,0 61.0237929,4.49410981 68.2644378,11.7129503 Z" id="Fill-14"></path>
            <path d="M46.2024,39.1904 L35.2568,45.0896 L35.2568,33.2456 L40.2144,35.944 L46.2024,39.1904 Z M59.2752,31.2056 C59.2752,31.2056 58.86,28.288 57.652,27.016 C56.1176,25.3488 54.384,25.3272 53.6168,25.2168 C47.9576,24.8 39.4688,24.8 39.4688,24.8 L39.424,24.8 C39.424,24.8 30.9584,24.8 25.2976,25.2168 C24.4872,25.3272 22.776,25.3488 21.2408,27.016 C20.0336,28.288 19.6184,31.2056 19.6184,31.2056 C19.6184,31.2056 19.2,34.6272 19.2,38.0048 L19.2,41.2296 C19.2,44.6512 19.6184,48.0296 19.6184,48.0296 C19.6184,48.0296 20.0336,50.9472 21.2408,52.2408 C22.776,53.9296 24.7952,53.8648 25.716,54.0392 C28.94,54.3688 39.4688,54.4784 39.4688,54.4784 C39.4688,54.4784 47.9576,54.4344 53.6168,54.0392 C54.384,53.9296 56.1176,53.9296 57.652,52.2408 C58.86,50.9472 59.2752,48.0296 59.2752,48.0296 C59.2752,48.0296 59.6696,44.6512 59.6696,41.2296 L59.6696,38.0048 C59.6696,34.6272 59.2752,31.2056 59.2752,31.2056 Z" id="Fill-43"></path>
        </g>
    </g>
</svg>