<?xml version="1.0" encoding="UTF-8" standalone="no"?>
<svg width="80px" height="80px" viewBox="0 0 80 80" version="1.1" xmlns="http://www.w3.org/2000/svg" xmlns:xlink="http://www.w3.org/1999/xlink">
    <!-- Generator: Sketch 48.2 (47327) - http://www.bohemiancoding.com/sketch -->
    <title>Group</title>
    <desc>Created with Sketch.</desc>
    <defs></defs>
    <g id="Menu" stroke="none" stroke-width="1" fill="none" fill-rule="evenodd" transform="translate(-870.000000, -909.000000)">
        <g id="Group" transform="translate(870.000000, 909.000000)" fill="#414241">
            <path d="M65.4544,13.7968 C58.8296,7.1944 49.7048,3.092 39.6144,3.092 C29.5464,3.092 20.4,7.1944 13.7976,13.7968 C7.1952,20.3992 3.0936,29.524 3.0936,39.6144 C3.0936,49.7048 7.1952,58.8288 13.7976,65.4536 C20.4,72.056 29.5464,76.136 39.6144,76.136 C49.7048,76.136 58.8296,72.056 65.4544,65.4536 C72.0568,58.8288 76.136,49.7048 76.136,39.6144 C76.136,29.524 72.0568,20.3992 65.4544,13.7968 Z M39.6144,0 C50.56,0 60.4744,4.4304 67.6256,11.604 C74.7984,18.7768 79.2288,28.6688 79.2288,39.6144 C79.2288,50.5592 74.7984,60.452 67.6256,67.6248 C60.4744,74.7976 50.56,79.228 39.6144,79.228 C28.6912,79.228 18.7776,74.7976 11.604,67.6248 C4.4312,60.452 0,50.5592 0,39.6144 C0,28.6688 4.4312,18.7768 11.604,11.604 C18.7776,4.4304 28.6912,0 39.6144,0 Z" id="Fill-5"></path>
            <path d="M52.4248,39.6144 C52.4248,32.5512 46.7,26.8048 39.6144,26.8048 C32.5512,26.8048 26.8048,32.5512 26.8048,39.6144 C26.8048,46.6992 32.5512,52.424 39.6144,52.424 C46.7,52.424 52.4248,46.6992 52.4248,39.6144 Z M52.1832,25.0712 C51.0432,25.0712 50.1216,25.9928 50.1216,27.1328 C50.1216,28.2736 51.0432,29.1952 52.1832,29.1952 C53.324,29.1952 54.2456,28.2736 54.2456,27.1328 C54.2456,25.9928 53.324,25.0712 52.1832,25.0712 Z M29.152,22.1104 L50.1,22.1104 C53.9824,22.1104 57.1408,25.2688 57.1408,29.152 L57.1408,50.0992 C57.1408,53.9816 53.9824,57.14 50.1,57.14 L29.152,57.14 C25.2688,57.14 22.1112,53.9816 22.1112,50.0992 L22.1112,29.152 C22.1112,25.2688 25.2688,22.1104 29.152,22.1104 Z M50.1,19.7632 L29.152,19.7632 C23.9976,19.7632 19.764,23.9744 19.764,29.152 L19.764,50.0992 C19.764,55.2536 23.9976,59.4872 29.152,59.4872 L50.1,59.4872 C55.2768,59.4872 59.488,55.2536 59.488,50.0992 L59.488,29.152 C59.488,23.9744 55.2768,19.7632 50.1,19.7632 Z M29.4808,39.6144 C29.4808,34.0208 34.0216,29.4584 39.6144,29.4584 C45.2304,29.4584 49.7704,34.0208 49.7704,39.6144 C49.7704,45.2288 45.2304,49.7704 39.6144,49.7704 C34.0216,49.7704 29.4808,45.2288 29.4808,39.6144 Z" id="Fill-74"></path>
        </g>
    </g>
</svg>