<?xml version="1.0" encoding="UTF-8" standalone="no"?>
<svg width="80px" height="80px" viewBox="0 0 80 80" version="1.1" xmlns="http://www.w3.org/2000/svg" xmlns:xlink="http://www.w3.org/1999/xlink">
    <!-- Generator: Sketch 48.2 (47327) - http://www.bohemiancoding.com/sketch -->
    <title>Group 3</title>
    <desc>Created with Sketch.</desc>
    <defs></defs>
    <g id="Menu" stroke="none" stroke-width="1" fill="none" fill-rule="evenodd" transform="translate(-980.000000, -909.000000)">
        <g id="Group-3" transform="translate(980.000000, 909.000000)" fill="#414241">
            <path d="M65.432,13.7968 C58.8288,7.1936 49.7056,3.1144 39.6152,3.1144 C29.5232,3.1144 20.4,7.1936 13.7968,13.7968 C7.1736,20.3992 3.0928,29.5464 3.0928,39.636 C3.0928,49.704 7.1736,58.8512 13.7968,65.4536 C20.4,72.0552 29.5232,76.1576 39.6152,76.1576 C49.7056,76.1576 58.8288,72.0552 65.432,65.4536 C72.056,58.8512 76.136,49.704 76.136,39.636 C76.136,29.5464 72.056,20.3992 65.432,13.7968 Z M39.6152,0 C50.56,0 60.4528,4.452 67.6256,11.6032 C74.7984,18.776 79.2288,28.6904 79.2288,39.636 C79.2288,50.5592 74.7984,60.4744 67.6256,67.6464 C60.4528,74.7976 50.56,79.2504 39.6152,79.2504 C28.6688,79.2504 18.7768,74.7976 11.6048,67.6464 C4.4304,60.4744 0,50.5592 0,39.636 C0,28.6904 4.4304,18.776 11.6048,11.6032 C18.7768,4.452 28.6688,0 39.6152,0 Z" id="Fill-15"></path>
            <path d="M59.6472,27.0384 C58.1768,27.6752 56.5768,28.1136 54.888,28.3328 C56.62,27.3024 57.9352,25.7224 58.5512,23.792 C56.9496,24.7352 55.1512,25.4152 53.2648,25.788 C51.7712,24.1872 49.6016,23.2 47.1888,23.2 C42.6264,23.2 38.8968,26.8632 38.8968,31.3592 C38.8968,32.0176 39.0072,32.632 39.1384,33.2248 C32.2296,32.8952 26.1088,29.6488 22.0288,24.6912 C21.3272,25.92 20.8888,27.3024 20.8888,28.7936 C20.8888,31.6448 22.38,34.1456 24.5728,35.5936 C23.2136,35.5712 21.9408,35.1984 20.8232,34.584 C20.8232,34.628 20.8232,34.6504 20.8232,34.6936 C20.8232,35.7464 21.0208,36.712 21.3928,37.6328 C22.4024,40.2 24.7056,42.1296 27.492,42.6784 C26.7664,42.876 26.0648,42.9848 25.2976,42.9848 C24.7712,42.9848 24.2448,42.9192 23.7392,42.8096 C24.8152,46.056 27.8632,48.4248 31.484,48.5128 C28.6312,50.7064 25.0784,52.0008 21.196,52.0008 C20.5152,52.0008 19.88,51.956 19.2,51.8904 C22.8848,54.1944 27.2496,55.5536 31.9224,55.5536 C44.8856,55.5536 52.892,46.5824 54.9744,37.26 C55.3488,35.5936 55.5232,33.948 55.5232,32.3248 C55.5232,31.9736 55.5232,31.6016 55.5232,31.272 C57.1248,30.1096 58.5512,28.6616 59.6472,27.0384" id="Fill-50"></path>
        </g>
    </g>
</svg>